# AST/ASF file generated using VICON BodyLanguage
# -----------------------------------------------
:version 1.10
:name VICON
:units
  mass 1.0
  length 0.45
  angle deg
:documentation
   .ast/.asf automatically generated from VICON data using
   VICON BodyBuilder and BodyLanguage model FoxedUp or BRILLIANT.MOD
:root
   order TX TY TZ RX RY RZ
   axis XYZ
   position 0 0 0  
   orientation 0 0 0 
:bonedata
  begin
     id 1 
     name lhipjoint
     direction 0.558404 -0.748506 0.357664 
     length 2.4234 
     axis 0 0 0  XYZ
  end
  begin
     id 2 
     name lfemur
     direction 0.34202 -0.939693 0  
     length 7.14567  
     axis 0 0 20  XYZ
    dof rx ry rz
    limits (-160.0 20.0)
           (-70.0 70.0)
           (-60.0 70.0)
  end
  begin
     id 3 
     name ltibia
     direction 0.34202 -0.939693 0   
     length 8.13956   
     axis 0 0 20   XYZ
    dof rx
    limits (-10.0 170.0)
  end
  begin
     id 4 
     name lfoot
     direction 0.0791314 -0.217412 0.972867   
     length 2.00134   
     axis -90 7.62852e-016 20   XYZ
    dof rx rz
    limits (-45.0 90.0)
           (-70.0 20.0)
  end
  begin
     id 5 
     name ltoes
     direction 1.53547e-011 -4.21922e-011 1   
     length 1.00735   
     axis -90 7.62852e-016 20   XYZ
    dof rx
    limits (-90.0 20.0)
  end
  begin
     id 6 
     name rhipjoint
     direction -0.496392 -0.78327 0.374276   
     length 2.31584  
     axis 0 0 0  XYZ 
  end
  begin
     id 7 
     name rfemur
     direction -0.34202 -0.939693 0   
     length 7.47417   
     axis 0 0 -20   XYZ
    dof rx ry rz
    limits (-160.0 20.0)
           (-70.0 70.0)
           (-70.0 60.0)
  end
  begin
     id 8 
     name rtibia
     direction -0.34202 -0.939693 0   
     length 7.69071   
     axis 0 0 -20   XYZ
    dof rx
    limits (-10.0 170.0)
 end
 begin
     id 9 
     name rfoot
     direction -0.103069 -0.28318 0.953512   
     length 2.16135  
     axis -90 -7.62852e-016 -20   XYZ
    dof rx rz
    limits (-45.0 90.0)
           (-20.0 70.0)
  end
  begin
     id 10 
     name rtoes
     direction -1.53581e-011 -4.21904e-011 1   
     length 1.07867   
     axis -90 -7.62852e-016 -20   XYZ
    dof rx
    limits (-90.0 20.0)
  end
  begin
     id 11 
     name lowerback
     direction -0.0258961 0.994776 -0.0987407   
     length 2.19412   
     axis 0 0 0   XYZ
    dof rx ry rz
    limits (-20.0 45.0)
           (-30.0 30.0)
           (-30.0 30.0)
  end
  begin
     id 12 
     name upperback
     direction 0.0402454 0.999185 0.00320666   
     length 2.18445   
     axis 0 0 0   XYZ
    dof rx ry rz
    limits (-20.0 45.0)
           (-30.0 30.0)
           (-30.0 30.0)
  end
  begin
     id 13 
     name thorax
     direction 0.0519376 0.997415 0.0496558   
     length 2.21487   
     axis 0 0 0   XYZ
    dof rx ry rz
    limits (-20.0 45.0)
           (-30.0 30.0)
           (-30.0 30.0)
  end
  begin
     id 14 
     name lowerneck
     direction -0.0921276 0.983211 0.157506   
     length 1.61201   
     axis 0 0 0   XYZ
    dof rx ry rz
    limits (-20.0 45.0)
           (-30.0 30.0)
           (-30.0 30.0)
  end
  begin
     id 15 
     name upperneck
     direction 0.0820814 0.98162 -0.172292   
     length 1.65275   
     axis 0 0 0   XYZ
    dof rx ry rz
    limits (-20.0 45.0)
           (-30.0 30.0)
           (-30.0 30.0)
  end
  begin
     id 16
     name head
     direction 0.0336554 0.996413 -0.0776455  
     length 1.66415  
     axis 0 0 0   XYZ
    dof rx ry rz
    limits (-20.0 45.0)
           (-30.0 30.0)
           (-30.0 30.0)
  end
  begin
     id 17 
     name lclavicle
     direction 0.94696 0.284418 -0.149576  
     length 3.41447  
     axis 0 0 0   XYZ
    dof ry rz
    limits (-20.0 10.0)
           (0.0 20.0)
  end
  begin
     id 18 
     name lhumerus
     direction 1 -0.000130264 -9.81312e-005   
     length 5.19964   
     axis 180 -30 -90   XYZ
    dof rx ry rz
    limits (-60.0 90.0)
           (-90.0 90.0)
           (-90.0 90.0)
  end
  begin
     id 19
     name lradius
     direction 1 -4.48961e-011 1.43854e-026   
     length 3.32189   
     axis 180 -30 -90   XYZ
    dof rx
    limits (-10.0 170.0)
  end
  begin
     id 20
     name lwrist
     direction 1 -4.48958e-011 3.1502e-026   
     length 1.66095   
     axis -1.97692e-014 90 90   XYZ
    dof ry
    limits (-180.0 0.0)
 end
  begin
     id 21 
     name lhand
     direction 1 -4.48927e-011 6.3004e-026   
     length 0.645616   
     axis -4.02019e-014 90 90   XYZ
    dof rx rz
    limits (-90.0 90.0)
           (-45.0 45.0)
  end
  begin
     id 22 
     name lfingers
     direction 1 -4.4904e-011 1.26008e-025   
     length 0.520512   
     axis -8.04039e-014 90 90   XYZ
    dof rx
    limits (0.0 90.0)
  end
  begin
     id 23
     name lthumb
     direction 0.707107 -6.34947e-011 0.707107   
     length 0.747354   
     axis -90 45 2.85299e-015   XYZ
    dof rx rz
    limits (-45.0 45.0)
           (-45.0 45.0)
  end
  begin
     id 24 
     name rclavicle
     direction -0.909391 0.383475 -0.161107   
     length 3.25176  
     axis 0 0 0   XYZ 
    dof ry rz
    limits (-10.0 20.0)
           (-20.0 0.0)
  end
  begin
     id 25 
     name rhumerus
     direction -1 -4.48965e-011 -1.81384e-027  
     length 5.6595   
     axis 180 30 90   XYZ
    dof rx ry rz
    limits (-90.0 60.0)
           (-90.0 90.0)
           (-90.0 90.0)
  end
  begin
     id 26 
     name rradius
     direction -1 -4.48996e-011 -8.09397e-027   
     length 3.37604   
     axis 180 30 90   XYZ
    dof rx
    limits (-10.0 170.0)
  end
  begin
     id 27 
     name rwrist
     direction -1 -4.48927e-011 -1.56669e-026   
     length 1.68802   
     axis 1.21142e-014 -90 -90   XYZ
    dof ry
    limits (-180.0 0.0)
  end
  begin
     id 28
     name rhand
     direction -1 -4.48912e-011 -3.13339e-026   
     length 0.824702   
     axis 1.99937e-014 -90 -90   XYZ
    dof rx rz
    limits (-90.0 90.0)
           (-45.0 45.0)
  end
  begin
     id 29
     name rfingers
     direction -1 -4.49011e-011 -6.26677e-026   
     length 0.664896   
     axis 3.99874e-014 -90 -90   XYZ
    dof rx
    limits (0.0 90.0)
  end
  begin
     id 30
     name rthumb
     direction -0.707107 -6.34931e-011 0.707107   
     length 0.954662   
     axis -90 -45 -2.85299e-015   XYZ
    dof rx rz
    limits (-45.0 45.0)
           (-45.0 45.0)
  end
:hierarchy
  begin
    root lhipjoint rhipjoint lowerback
    lhipjoint lfemur
    lfemur ltibia
    ltibia lfoot
    lfoot ltoes
    rhipjoint rfemur
    rfemur rtibia
    rtibia rfoot
    rfoot rtoes
    lowerback upperback
    upperback thorax
    thorax lowerneck lclavicle rclavicle
    lowerneck upperneck
    upperneck head
    lclavicle lhumerus
    lhumerus lradius
    lradius lwrist
    lwrist lhand lthumb
    lhand lfingers
    rclavicle rhumerus
    rhumerus rradius
    rradius rwrist
    rwrist rhand rthumb
    rhand rfingers
  end

#!OML:ASF F:\VICON\USERDATA\INSTALL\rory3\rory3.ASF
:FULLY-SPECIFIED
:DEGREES
126
root 9.35595 17.7525 -14.1692 2.37376 -26.6438 -4.5363
lowerback 1.77256 1.1958 -1.00805
upperback -1.06488 1.62469 3.16314
thorax -2.20905 0.849303 3.76286
lowerneck -15.0122 -5.47713 -14.511
upperneck 21.3645 -6.8142 11.3599
head 10.1865 -3.14197 5.55779
rclavicle -8.64092e-015 8.74653e-015
rhumerus -39.2603 -20.6248 -66.4731
rradius 32.0346
rwrist -10.9312
rhand -7.40754 19.5293
rfingers 7.12502
rthumb 18.4788 -9.61303
lclavicle -8.64092e-015 8.74653e-015
lhumerus -30.1636 -0.334436 82.9297
lradius 28.1582
lwrist -9.79281
lhand 5.24905 32.5892
lfingers 7.12502
lthumb 30.6075 60.0648
rfemur -10.2101 3.29065 16.7754
rtibia 34.5963
rfoot -19.6621 -11.7253
rtoes 10.5175
lfemur -8.39619 -2.75397 -15.932
ltibia 35.1535
lfoot -23.5675 6.19801
ltoes 1.22732
127
root 9.35181 17.7536 -14.177 2.51688 -26.5926 -4.68509
lowerback 1.74728 1.19643 -0.857724
upperback -1.05777 1.62956 3.20216
thorax -2.1847 0.849291 3.71872
lowerneck -15.6911 -5.24104 -14.0542
upperneck 21.6841 -6.45636 11.0937
head 10.3499 -2.94985 5.43802
rclavicle 5.08889e-014 1.15295e-014
rhumerus -39.1212 -20.5981 -66.3886
rradius 32.1661
rwrist -11.1161
rhand -7.44252 19.3254
rfingers 7.12502
rthumb 18.4452 -9.82014
lclavicle 5.08889e-014 1.15295e-014
lhumerus -30.0926 -0.372663 82.5906
lradius 27.278
lwrist -12.2763
lhand 2.73181 29.2067
lfingers 7.12502
lthumb 28.2043 57.1045
rfemur -10.316 3.4462 16.9833
rtibia 34.6064
rfoot -19.618 -11.8757
rtoes 10.7227
lfemur -8.54122 -2.73935 -15.7308
ltibia 35.1984
lfoot -23.553 6.17964
ltoes 1.12527
128
root 9.34788 17.7557 -14.1766 2.55812 -26.5717 -4.80127
lowerback 1.71383 1.21626 -0.67995
upperback -1.04095 1.66025 3.23938
thorax -2.14672 0.861564 3.65649
lowerneck -15.9847 -4.9922 -13.9995
upperneck 21.8616 -6.10975 11.18
head 10.4192 -2.76946 5.51722
rclavicle 1.28092e-014 -4.37326e-015
rhumerus -39.1137 -20.6451 -66.1501
rradius 32.2881
rwrist -11.2465
rhand -7.61474 19.18
rfingers 7.12502
rthumb 18.2795 -9.98107
lclavicle 1.28092e-014 -4.37326e-015
lhumerus -30.0025 0.114497 82.0778
lradius 27.515
lwrist -11.5779
lhand 3.65231 30.9121
lfingers 7.12502
lthumb 29.0837 58.6614
rfemur -10.3267 3.37649 17.1221
rtibia 34.6169
rfoot -19.5615 -11.9705
rtoes 10.2082
lfemur -8.53782 -2.77069 -15.6051
ltibia 35.2284
lfoot -23.5541 6.22744
ltoes 1.43256
129
root 9.34489 17.7564 -14.1716 2.50268 -26.564 -4.71608
lowerback 1.55238 1.228 -0.64047
upperback -0.95338 1.6726 3.21746
thorax -1.96478 0.864354 3.61509
lowerneck -16.3115 -4.82313 -14.0069
upperneck 22.0745 -5.84876 11.231
head 10.5219 -2.63718 5.58291
rclavicle 4.25772e-014 0
rhumerus -39.0946 -20.2408 -66.131
rradius 32.6095
rwrist -11.8561
rhand -7.84284 19.0789
rfingers 7.12502
rthumb 18.0601 -10.1026
lclavicle 4.25772e-014 0
lhumerus -29.8064 0.614844 81.5641
lradius 27.5074
lwrist -11.5399
lhand 3.63102 31.5957
lfingers 7.12502
lthumb 29.0634 59.3485
rfemur -10.3088 3.1114 17.0104
rtibia 34.6229
rfoot -19.5156 -11.8346
rtoes 9.70778
lfemur -8.49632 -2.7443 -15.706
ltibia 35.2536
lfoot -23.5829 6.31876
ltoes 1.19804
130
root 9.34097 17.754 -14.17 2.42109 -26.5786 -4.61144
lowerback 1.50322 1.24761 -0.687935
upperback -0.92612 1.69682 3.23694
thorax -1.91284 0.876477 3.66255
lowerneck -16.6626 -4.65728 -14.0595
upperneck 22.4216 -5.59166 11.2999
head 10.681 -2.51031 5.66879
rclavicle 2.10215e-014 -1.98785e-015
rhumerus -39.0688 -20.0315 -65.9495
rradius 32.7315
rwrist -12.0988
rhand -7.86115 18.9995
rfingers 7.12502
rthumb 18.0424 -10.1836
lclavicle 2.10215e-014 -1.98785e-015
lhumerus -29.6118 1.10785 81.1077
lradius 27.3335
lwrist -11.82
lhand 3.13102 31.4755
lfingers 7.12502
lthumb 28.5857 59.3098
rfemur -10.2771 3.1655 16.9283
rtibia 34.6305
rfoot -19.5043 -11.9011
rtoes 9.59637
lfemur -8.44015 -2.66151 -15.8113
ltibia 35.2585
lfoot -23.5877 6.47936
ltoes -0.11169
131
root 9.33582 17.7529 -14.1757 2.4937 -26.5574 -4.68334
lowerback 1.59765 1.27368 -0.661432
upperback -1.05602 1.73773 3.325
thorax -2.10459 0.900367 3.73426
lowerneck -16.6548 -4.47758 -14.1554
upperneck 22.5453 -5.33803 11.3759
head 10.691 -2.39581 5.75734
rclavicle 4.58571e-014 1.63003e-014
rhumerus -39.1204 -20.3555 -65.4234
rradius 32.5036
rwrist -11.7709
rhand -7.67917 19.133
rfingers 7.12502
rthumb 18.2175 -10.0339
lclavicle 4.58571e-014 1.63003e-014
lhumerus -29.6228 1.50902 80.7107
lradius 27.2057
lwrist -11.8142
lhand 2.53113 31.2895
lfingers 7.12502
lthumb 28.0124 59.2188
rfemur -10.3249 3.30375 17.049
rtibia 34.6221
rfoot -19.4716 -12.0847
rtoes 9.51663
lfemur -8.51822 -2.53078 -15.6872
ltibia 35.279
lfoot -23.5697 6.47218
ltoes -1.08185
